<svg width="24" height="24" viewBox="0 0 24 24" version="1.1" xmlns="http://www.w3.org/2000/svg" xmlns:xlink="http://www.w3.org/1999/xlink">
<title>ic_magnifying-glass</title>
<desc>Created using Figma</desc>
<g id="Canvas" transform="translate(2748 788)">
<g id="ic_magnifying-glass">
<g id="Oval 220">
<use xlink:href="#path0_stroke" transform="translate(-2746 -786)" fill="#C1B2B1"/>
</g>
<g id="Line">
<use xlink:href="#path1_stroke" transform="translate(-2732.28 -772.138)" fill="#C1B2B1"/>
</g>
</g>
</g>
<defs>
<path id="path0_stroke" d="M 7.62712 16.6672C 12.493 16.6672 16.4042 12.6601 16.4042 7.75862L 14.1042 7.75862C 14.1042 11.4271 11.1859 14.3672 7.62712 14.3672L 7.62712 16.6672ZM 16.4042 7.75862C 16.4042 2.85714 12.493 -1.15 7.62712 -1.15L 7.62712 1.15C 11.1859 1.15 14.1042 4.09017 14.1042 7.75862L 16.4042 7.75862ZM 7.62712 -1.15C 2.7612 -1.15 -1.15 2.85714 -1.15 7.75862L 1.15 7.75862C 1.15 4.09017 4.06836 1.15 7.62712 1.15L 7.62712 -1.15ZM -1.15 7.75862C -1.15 12.6601 2.7612 16.6672 7.62712 16.6672L 7.62712 14.3672C 4.06836 14.3672 1.15 11.4271 1.15 7.75862L -1.15 7.75862Z"/>
<path id="path1_stroke" d="M 0.820093 -0.806193L 0.0138999 -1.62629L -1.62629 -0.0138999L -0.820093 0.806193L 0.820093 -0.806193ZM 5.19148 6.92142L 5.99768 7.74151L 7.63786 6.12912L 6.83167 5.30903L 5.19148 6.92142ZM -0.820093 0.806193L 5.19148 6.92142L 6.83167 5.30903L 0.820093 -0.806193L -0.820093 0.806193Z"/>
</defs>
</svg>
